<svg width="40" height="40" viewBox="0 0 40 40" fill="none" xmlns="http://www.w3.org/2000/svg">
<g clip-path="url(#clip0_60_773)">
<g clip-path="url(#clip1_60_773)">
<g clip-path="url(#clip2_60_773)">
<path d="M38.3318 8.50879H29.8229C29.484 8.50879 29.2092 8.7835 29.2092 9.12243V9.77695C29.2092 10.1604 28.8972 10.4724 28.5137 10.4724C28.1303 10.4724 27.8183 10.1604 27.8183 9.77695V9.12243C27.8183 8.78358 27.5436 8.50879 27.2046 8.50879H1.67808C0.97878 8.50879 0.409912 9.07766 0.409912 9.77695V29.4128C0.409912 30.1121 0.97878 30.681 1.67808 30.681H27.2048C27.5436 30.681 27.8184 30.4063 27.8184 30.0673V29.4128C27.8184 29.0293 28.1304 28.7174 28.5139 28.7174C28.8974 28.7174 29.2094 29.0293 29.2094 29.4128V30.0673C29.2094 30.4062 29.4841 30.681 29.823 30.681H38.3319C39.0312 30.681 39.6001 30.1121 39.6001 29.4128V9.77695C39.5999 9.07766 39.031 8.50879 38.3318 8.50879ZM38.3727 29.4128C38.3727 29.4354 38.3544 29.4537 38.3318 29.4537H30.4365V29.4128C30.4365 28.5672 29.8875 27.8478 29.1275 27.5911V26.7947C29.1275 26.4558 28.8527 26.181 28.5138 26.181C28.175 26.181 27.9002 26.4557 27.9002 26.7947V27.5911C27.1401 27.8478 26.5911 28.5672 26.5911 29.4128V29.4537H1.67808C1.6555 29.4537 1.6372 29.4354 1.6372 29.4128V9.77695C1.6372 9.75437 1.6555 9.73608 1.67808 9.73608H26.5911V9.77695C26.5911 10.6226 27.1401 11.342 27.9002 11.5987V12.3951C27.9002 12.734 28.1749 13.0088 28.5138 13.0088C28.8527 13.0088 29.1275 12.734 29.1275 12.3951V11.5987C29.8875 11.342 30.4365 10.6226 30.4365 9.77695V9.73608H38.3318C38.3543 9.73608 38.3726 9.75437 38.3726 9.77695V29.4128H38.3727Z" fill="#292929"/>
<path d="M28.5138 14.3994C28.1749 14.3994 27.9001 14.6741 27.9001 15.0131V16.3221C27.9001 16.661 28.1749 16.9357 28.5138 16.9357C28.8526 16.9357 29.1274 16.661 29.1274 16.3221V15.0131C29.1274 14.6742 28.8526 14.3994 28.5138 14.3994Z" fill="#292929"/>
<path d="M28.5138 18.3267C28.1749 18.3267 27.9001 18.6014 27.9001 18.9403V20.2493C27.9001 20.5882 28.1749 20.863 28.5138 20.863C28.8526 20.863 29.1274 20.5883 29.1274 20.2493V18.9403C29.1274 18.6014 28.8526 18.3267 28.5138 18.3267Z" fill="#292929"/>
<path d="M28.5138 22.2539C28.1749 22.2539 27.9001 22.5286 27.9001 22.8676V24.1766C27.9001 24.5154 28.1749 24.7902 28.5138 24.7902C28.8526 24.7902 29.1274 24.5155 29.1274 24.1766V22.8676C29.1274 22.5286 28.8526 22.2539 28.5138 22.2539Z" fill="#292929"/>
<path d="M20.4389 13.2706C20.1992 13.0309 19.8107 13.0309 19.5711 13.2706L7.78961 25.0521C7.54995 25.2918 7.54995 25.6803 7.78961 25.9199C7.9094 26.0398 8.06646 26.0996 8.22345 26.0996C8.38044 26.0996 8.53751 26.0398 8.6573 25.9199L20.4389 14.1383C20.6785 13.8987 20.6785 13.5101 20.4389 13.2706Z" fill="#292929"/>
<path d="M10.187 12.436C8.40505 12.436 6.95532 13.8858 6.95532 15.6678C6.95532 17.4497 8.40512 18.8995 10.187 18.8995C11.969 18.8995 13.4188 17.4497 13.4188 15.6678C13.4188 13.8858 11.969 12.436 10.187 12.436ZM10.187 17.6723C9.08176 17.6723 8.18254 16.773 8.18254 15.6678C8.18254 14.5625 9.08176 13.6632 10.187 13.6632C11.2923 13.6632 12.1916 14.5625 12.1916 15.6678C12.1916 16.773 11.2922 17.6723 10.187 17.6723Z" fill="#292929"/>
<path d="M18.0413 20.2905C16.2593 20.2905 14.8096 21.7403 14.8096 23.5222C14.8096 25.3042 16.2594 26.754 18.0413 26.754C19.8232 26.754 21.273 25.3042 21.273 23.5222C21.273 21.7403 19.8232 20.2905 18.0413 20.2905ZM18.0413 25.5268C16.936 25.5268 16.0368 24.6275 16.0368 23.5222C16.0368 22.417 16.936 21.5177 18.0413 21.5177C19.1466 21.5177 20.0458 22.417 20.0458 23.5222C20.0458 24.6275 19.1465 25.5268 18.0413 25.5268Z" fill="#292929"/>
</g>
</g>
</g>
<defs>
<clipPath id="clip0_60_773">
<rect width="39.18" height="39.19" fill="white" transform="translate(0.409912)"/>
</clipPath>
<clipPath id="clip1_60_773">
<rect width="39.18" height="39.19" fill="white" transform="translate(0.409912)"/>
</clipPath>
<clipPath id="clip2_60_773">
<rect width="39.19" height="39.19" fill="white" transform="translate(0.409912)"/>
</clipPath>
</defs>
</svg>
