<svg width="40" height="40" viewBox="0 0 40 40" fill="none" xmlns="http://www.w3.org/2000/svg">
<g clip-path="url(#clip0_60_823)">
<g clip-path="url(#clip1_60_823)">
<path d="M30.4397 17.3043C30.4397 16.0637 29.4304 15.0544 28.1897 15.0544H24.0547C25.0594 13.9252 25.7159 12.6394 25.8428 11.4858C25.9202 10.7812 25.7026 10.0818 25.2454 9.56692C24.8275 9.09626 24.2561 8.83394 23.6364 8.8282C23.6292 8.82812 23.622 8.82813 23.6149 8.82813C23.0155 8.82813 22.4529 9.05898 22.0283 9.47966C21.6037 9.90042 21.3687 10.4609 21.3659 11.0591C21.3441 11.1901 21.1137 11.6416 20.55 12.1777C20.0884 12.6168 19.2912 13.2203 18.114 13.6025C17.6525 13.7524 17.2306 14.0283 16.8603 14.4227C16.666 14.6295 16.3749 14.9151 16.0147 15.2019C15.8378 15.1082 15.6368 15.0546 15.4231 15.0546H11.4959C10.7967 15.0546 10.2278 15.6235 10.2278 16.3228V26.7952C10.2278 27.4945 10.7967 28.0634 11.4959 28.0634H15.4231C15.8998 28.0634 16.3156 27.7987 16.5322 27.4089H26.5534C27.6136 27.4089 28.4761 26.5464 28.4761 25.4862C28.4761 25.1297 28.3786 24.7957 28.2089 24.5091C28.7613 24.1709 29.1306 23.5618 29.1306 22.868C29.1306 22.5116 29.0332 22.1775 28.8634 21.891C29.4158 21.5528 29.7851 20.9437 29.7851 20.2499C29.7851 19.8486 29.6616 19.4757 29.4506 19.1671C30.0471 18.7619 30.4397 18.0781 30.4397 17.3043ZM28.1897 18.327H27.8624C27.5236 18.327 27.2488 18.6017 27.2488 18.9407C27.2488 19.2795 27.5235 19.5543 27.8624 19.5543C28.2459 19.5543 28.5579 19.8663 28.5579 20.2498C28.5579 20.6333 28.2459 20.9453 27.8624 20.9453H27.2079C26.8691 20.9453 26.5943 21.22 26.5943 21.5589C26.5943 21.8978 26.869 22.1726 27.2079 22.1726C27.5914 22.1726 27.9034 22.4845 27.9034 22.868C27.9034 23.2515 27.5914 23.5635 27.2079 23.5635H26.5534C26.2145 23.5635 25.9398 23.8382 25.9398 24.1771C25.9398 24.516 26.2145 24.7908 26.5534 24.7908C26.9369 24.7908 27.2489 25.1028 27.2489 25.4862C27.2489 25.8697 26.9369 26.1817 26.5534 26.1817H16.6913V20.25C16.6913 19.9112 16.4166 19.6364 16.0777 19.6364C15.7387 19.6364 15.464 19.9111 15.464 20.25V26.7953C15.464 26.8179 15.4457 26.8362 15.4231 26.8362H11.4959C11.4734 26.8362 11.4551 26.8179 11.4551 26.7953V16.3225C11.4551 16.2999 11.4734 16.2817 11.4959 16.2817H15.4231C15.4457 16.2817 15.464 16.2999 15.464 16.3225V17.6316C15.464 17.9705 15.7387 18.2453 16.0777 18.2453C16.4166 18.2453 16.6913 17.9706 16.6913 17.6316V16.3225C16.6913 16.2927 16.6889 16.2636 16.6868 16.2343C17.1469 15.8782 17.5148 15.5181 17.7549 15.2626C17.982 15.0207 18.2303 14.8549 18.4929 14.7697C19.9373 14.3008 20.9093 13.5458 21.4703 12.995C22.1734 12.3046 22.5931 11.585 22.5931 11.0698C22.5931 10.7976 22.6992 10.5425 22.892 10.3514C23.0872 10.158 23.3457 10.0558 23.625 10.0554C23.969 10.0586 24.1968 10.2346 24.3275 10.3817C24.5514 10.6339 24.6616 10.9966 24.6227 11.3517C24.4887 12.5709 23.5136 14.0781 22.1386 15.1911C21.9366 15.3547 21.8595 15.6278 21.9462 15.8728C22.0329 16.1178 22.2647 16.2817 22.5246 16.2817H28.1896C28.7536 16.2817 29.2123 16.7404 29.2123 17.3043C29.2123 17.8683 28.7536 18.327 28.1897 18.327Z" fill="#292929"/>
<path d="M13.4596 24.2109C13.1208 24.2109 12.8428 24.4889 12.8428 24.8278C12.8428 25.1667 13.1208 25.4447 13.4596 25.4447C13.7985 25.4447 14.0765 25.1667 14.0765 24.8278C14.0766 24.489 13.7986 24.2109 13.4596 24.2109Z" fill="#292929"/>
<path d="M38.5061 19.595L39.5603 16.8055C39.6371 16.6026 39.6009 16.3743 39.4651 16.2049L37.6006 13.8777L37.7412 10.899C37.7514 10.6824 37.6464 10.4763 37.4652 10.3572L34.9728 8.72005L34.1861 5.84372C34.1288 5.63445 33.9653 5.47096 33.7561 5.41378L30.8798 4.62707L29.2426 2.13475C29.1235 1.95342 28.9174 1.84887 28.7008 1.85874L25.7222 1.99927L23.3949 0.134764C23.2256 -0.000870599 22.9973 -0.0370754 22.7943 0.0396206L20.0049 1.09377L17.2156 0.0396972C17.0125 -0.0370754 16.7842 -0.000870609 16.6149 0.13484L14.2877 1.99935L11.309 1.85882C11.0914 1.84856 10.8863 1.95358 10.7673 2.13483L9.13017 4.62722L6.25384 5.41393C6.04457 5.47119 5.88107 5.63468 5.8239 5.84387L5.03719 8.72021L2.5448 10.3573C2.36347 10.4764 2.25852 10.6825 2.26878 10.8991L2.40931 13.8777L0.544804 16.205C0.40917 16.3743 0.372965 16.6026 0.449661 16.8056L1.50373 19.595L0.449585 22.3843C0.372812 22.5873 0.409017 22.8156 0.544728 22.985L2.40924 25.3122L2.26871 28.2909C2.25845 28.5075 2.36347 28.7136 2.54472 28.8326L5.03711 30.4698L5.82382 33.3461C5.88107 33.5554 6.04457 33.7189 6.25376 33.7761L9.13009 34.5628L10.7672 37.0552C10.8863 37.2365 11.0927 37.3408 11.309 37.3312L14.2876 37.1907L16.6148 39.0552C16.7842 39.1909 17.0126 39.2271 17.2155 39.1503L20.0049 38.0962L22.7944 39.1503C22.8648 39.1769 22.9382 39.1899 23.0112 39.1899C23.1487 39.1899 23.2844 39.1437 23.3949 39.0552L25.7222 37.1907L28.7008 37.3312C28.9181 37.3408 29.1235 37.2364 29.2426 37.0552L30.8798 34.5628L33.7561 33.7761C33.9654 33.7188 34.1289 33.5553 34.1861 33.3461L34.9728 30.4698L37.4652 28.8326C37.6465 28.7135 37.7514 28.5075 37.7412 28.2909L37.6006 25.3122L39.4651 22.985C39.6008 22.8157 39.637 22.5873 39.5603 22.3843L38.5061 19.595ZM37.2762 19.8119L38.2885 22.4908L36.4979 24.7258C36.4044 24.8424 36.3567 24.9891 36.3638 25.1384L36.4988 27.999L34.1052 29.5713C33.9804 29.6533 33.8896 29.7781 33.8502 29.9223L33.0946 32.6847L30.3323 33.4402C30.1881 33.4796 30.0634 33.5703 29.9812 33.6953L28.409 36.0888L25.5483 35.9538C25.399 35.9469 25.2523 35.9945 25.1358 36.0879L22.9008 37.8786L20.2219 36.8662C20.152 36.8398 20.0784 36.8266 20.0049 36.8266C19.9315 36.8266 19.8579 36.8399 19.788 36.8662L17.1091 37.8786L14.8741 36.0879C14.7575 35.9945 14.6106 35.9469 14.4615 35.9538L11.6009 36.0888L10.0286 33.6953C9.94665 33.5704 9.82181 33.4796 9.67761 33.4402L6.91525 32.6847L6.15969 29.9223C6.12027 29.7782 6.02957 29.6534 5.90465 29.5713L3.51107 27.999L3.6461 25.1384C3.65314 24.989 3.60545 24.8424 3.51199 24.7258L1.72135 22.4908L2.73378 19.8119C2.78659 19.6721 2.78659 19.5178 2.73378 19.378L1.72135 16.6991L3.51199 14.4641C3.60545 14.3476 3.65314 14.2008 3.6461 14.0516L3.51107 11.1909L5.90465 9.61867C6.02949 9.53669 6.12027 9.41185 6.15969 9.26764L6.91525 6.50528L9.67761 5.74973C9.82174 5.71031 9.9465 5.6196 10.0286 5.49469L11.6009 3.10111L14.4615 3.23613C14.6106 3.2431 14.7575 3.19549 14.8741 3.10203L17.1091 1.31138L19.788 2.32382C19.9279 2.37663 20.0821 2.37663 20.2219 2.32382L22.9008 1.31138L25.1358 3.10203C25.2523 3.19556 25.3991 3.24317 25.5483 3.23613L28.409 3.10111L29.9812 5.49469C30.0632 5.61953 30.1881 5.71031 30.3323 5.74973L33.0946 6.50528L33.8502 9.26764C33.8896 9.41177 33.9803 9.53654 34.1052 9.61867L36.4988 11.1909L36.3638 14.0516C36.3567 14.2009 36.4044 14.3476 36.4979 14.4641L38.2885 16.6991L37.2761 19.378C37.2234 19.5179 37.2234 19.6721 37.2762 19.8119Z" fill="#292929"/>
<path d="M31.5349 8.99947C31.3822 8.83322 31.2239 8.66789 31.064 8.50807C30.9041 8.34824 30.7388 8.1898 30.5726 8.0371C30.3229 7.80793 29.9348 7.82446 29.7056 8.07414C29.4764 8.32375 29.4929 8.71198 29.7426 8.94115C29.8959 9.08198 30.0485 9.22818 30.1961 9.37576C30.3436 9.52325 30.4899 9.67596 30.6308 9.82935C30.7518 9.96116 30.9172 10.028 31.083 10.028C31.2313 10.028 31.38 9.97455 31.4978 9.8664C31.7475 9.6373 31.7641 9.24908 31.5349 8.99947Z" fill="#292929"/>
<path d="M28.3933 6.36264C25.4342 4.47738 21.8714 3.63954 18.3617 4.00289C14.8005 4.37183 11.4426 5.97173 8.90626 8.50798C6.11497 11.2993 4.48981 15.0073 4.33014 18.9491C4.17147 22.8676 5.46933 26.6721 7.98476 29.6616C8.10608 29.8058 8.27968 29.8801 8.45466 29.8801C8.59412 29.8801 8.73435 29.8328 8.84939 29.736C9.10864 29.5178 9.14202 29.1307 8.92387 28.8715C6.60607 26.1168 5.41016 22.6106 5.55636 18.9988C5.70348 15.3659 7.20127 11.9484 9.77395 9.37583C12.1116 7.03813 15.2064 5.56353 18.4881 5.2236C21.7239 4.88834 25.0073 5.66059 27.7338 7.39765C28.0197 7.57975 28.3989 7.4957 28.581 7.20989C28.7632 6.924 28.6791 6.54473 28.3933 6.36264Z" fill="#292929"/>
<path d="M33.2093 11.1786C33.0272 10.8927 32.6477 10.8086 32.3621 10.9907C32.0762 11.1728 31.9922 11.5522 32.1743 11.8379C33.9114 14.5645 34.6835 17.8481 34.3484 21.0837C34.0084 24.3654 32.5338 27.4601 30.1962 29.7979C27.6235 32.3705 24.206 33.8683 20.5732 34.0155C16.962 34.1623 13.4552 32.9658 10.7006 30.6481C10.4413 30.4299 10.0542 30.4633 9.83602 30.7226C9.61779 30.9818 9.65117 31.3689 9.91049 31.5871C12.7365 33.9649 16.2904 35.2548 19.9809 35.2548C20.1944 35.2548 20.4087 35.2504 20.6231 35.2418C24.5648 35.0822 28.2728 33.457 31.0641 30.6657C33.6005 28.1294 35.2004 24.7714 35.5692 21.2102C35.9327 17.7003 35.0946 14.1376 33.2093 11.1786Z" fill="#292929"/>
</g>
</g>
<defs>
<clipPath id="clip0_60_823">
<rect width="39.18" height="39.19" fill="white" transform="translate(0.409912)"/>
</clipPath>
<clipPath id="clip1_60_823">
<rect width="39.19" height="39.19" fill="white" transform="translate(0.409912)"/>
</clipPath>
</defs>
</svg>
