<svg width="40" height="40" viewBox="0 0 40 40" fill="none" xmlns="http://www.w3.org/2000/svg">
<g clip-path="url(#clip0_60_800)">
<g clip-path="url(#clip1_60_800)">
<path d="M36.8565 17.7091L35.8416 13.6497C36.119 13.5907 36.3272 13.3446 36.3272 13.0497V12.3951C36.3272 10.974 35.1711 9.81794 33.75 9.81794H29.1275V8.46787C29.1275 7.76857 28.5586 7.19971 27.8593 7.19971H4.29615C3.59685 7.19971 3.02799 7.76857 3.02799 8.46787V19.5949C3.02799 19.9338 3.3027 20.2086 3.64163 20.2086C3.98049 20.2086 4.25528 19.9339 4.25528 19.5949V8.46787C4.25528 8.44529 4.27357 8.427 4.29615 8.427H27.8592C27.8818 8.427 27.9001 8.44529 27.9001 8.46787V19.5951C27.9001 19.9339 28.1748 20.2087 28.5137 20.2087C28.8526 20.2087 29.1274 19.934 29.1274 19.5951V18.8995H36.366C36.3666 18.8995 36.367 18.8996 36.3676 18.8996C36.3682 18.8996 36.3687 18.8995 36.3693 18.8995C37.26 18.9001 38.0163 19.4848 38.2761 20.2904H36.368C36.0292 20.2904 35.7544 20.5651 35.7544 20.904V22.2131C35.7544 23.2733 36.6169 24.1358 37.6771 24.1358H38.3725V26.8357H36.7681C36.241 25.3138 34.7942 24.2175 33.0954 24.2175C31.3965 24.2175 29.9497 25.3138 29.4227 26.8357H29.1272V22.213C29.1272 21.8741 28.8525 21.5994 28.5136 21.5994C28.1747 21.5994 27.8999 21.8741 27.8999 22.213V26.8355H15.1687C14.6416 25.3136 13.1949 24.2174 11.496 24.2174C9.79714 24.2174 8.35033 25.3136 7.82333 26.8355H4.29615C4.27357 26.8355 4.25528 26.8172 4.25528 26.7946V25.4446H6.9143C7.25316 25.4446 7.52795 25.1699 7.52795 24.831C7.52795 24.4921 7.25324 24.2174 6.9143 24.2174H1.02356C0.684701 24.2174 0.409912 24.4921 0.409912 24.831C0.409912 25.1699 0.684625 25.4446 1.02356 25.4446H3.02806V26.7946C3.02806 27.4939 3.59693 28.0628 4.29623 28.0628H7.61085C7.61069 28.0764 7.60977 28.09 7.60977 28.1037C7.60977 30.2466 9.35319 31.9899 11.496 31.9899C13.6388 31.9899 15.3823 30.2466 15.3823 28.1037C15.3823 28.0899 15.3813 28.0764 15.3812 28.0628H29.2102C29.21 28.0764 29.2091 28.09 29.2091 28.1037C29.2091 30.2466 30.9525 31.9899 33.0954 31.9899C35.2382 31.9899 36.9816 30.2466 36.9816 28.1037C36.9816 28.0899 36.9807 28.0764 36.9805 28.0628H38.9862C39.325 28.0628 39.5998 27.7881 39.5998 27.4491V20.9039C39.5999 19.2879 38.4076 17.9453 36.8565 17.7091ZM29.1275 11.0451H33.75C34.4944 11.0451 35.1 11.6508 35.1 12.3951V12.436H29.1275V11.0451ZM29.1275 17.6722V13.6632H34.58L35.5822 17.6722H29.1275ZM11.496 30.7628C10.0298 30.7628 8.83699 29.5701 8.83699 28.1038C8.83699 26.6376 10.0298 25.4448 11.496 25.4448C12.9622 25.4448 14.155 26.6376 14.155 28.1038C14.155 29.5701 12.9622 30.7628 11.496 30.7628ZM33.0955 30.7628C31.6293 30.7628 30.4365 29.5701 30.4365 28.1038C30.4365 26.6376 31.6293 25.4448 33.0955 25.4448C34.5617 25.4448 35.7545 26.6376 35.7545 28.1038C35.7545 29.5701 34.5617 30.7628 33.0955 30.7628ZM38.3727 22.9085H37.6772C37.2937 22.9085 36.9818 22.5965 36.9818 22.213V21.5175H38.3726V22.9085H38.3727Z" fill="#292929"/>
<path d="M11.4959 26.8359C10.7967 26.8359 10.2278 27.4048 10.2278 28.1041C10.2278 28.8034 10.7967 29.3723 11.4959 29.3723C12.1952 29.3723 12.7641 28.8034 12.7641 28.1041C12.7641 27.4048 12.1952 26.8359 11.4959 26.8359Z" fill="#292929"/>
<path d="M33.0956 26.8359C32.3963 26.8359 31.8274 27.4048 31.8274 28.1041C31.8274 28.8034 32.3963 29.3723 33.0956 29.3723C33.7949 29.3723 34.3637 28.8034 34.3637 28.1041C34.3637 27.4048 33.7949 26.8359 33.0956 26.8359Z" fill="#292929"/>
<path d="M25.8957 24.2178H16.7323C16.3934 24.2178 16.1187 24.4925 16.1187 24.8314C16.1187 25.1704 16.3934 25.4451 16.7323 25.4451H25.8957C26.2346 25.4451 26.5094 25.1704 26.5094 24.8314C26.5094 24.4925 26.2346 24.2178 25.8957 24.2178Z" fill="#292929"/>
<path d="M10.187 21.5996H2.33264C1.99378 21.5996 1.71899 21.8743 1.71899 22.2133C1.71899 22.5522 1.99371 22.8269 2.33264 22.8269H10.187C10.5259 22.8269 10.8007 22.5522 10.8007 22.2133C10.8007 21.8743 10.5259 21.5996 10.187 21.5996Z" fill="#292929"/>
<path d="M21.7478 13.2705C21.5082 13.0309 21.1196 13.0309 20.88 13.2706L15.4231 18.7274L12.5844 15.8886C12.3447 15.649 11.9562 15.649 11.7166 15.8886C11.477 16.1283 11.477 16.5168 11.7166 16.7564L14.9893 20.0291C15.1091 20.149 15.2661 20.2088 15.4231 20.2088C15.5801 20.2088 15.7373 20.149 15.857 20.0291L21.7477 14.1383C21.9874 13.8986 21.9874 13.5102 21.7478 13.2705Z" fill="#292929"/>
</g>
</g>
<defs>
<clipPath id="clip0_60_800">
<rect width="39.18" height="39.19" fill="white" transform="translate(0.409912)"/>
</clipPath>
<clipPath id="clip1_60_800">
<rect width="39.19" height="39.19" fill="white" transform="translate(0.409912)"/>
</clipPath>
</defs>
</svg>
